# xmcd
#
# Track frame offsets:
#	150
#	13182
#	30124
#	48678
#	72948
#	83843
#	97637
#	112810
#	125811
#	141986
#	161403
#	179286
#	195729
#
# Disc length: 2665 seconds
#
# Revision: 0
# Processed by: cddbd v1.4PL0 Copyright (c) Steve Scherf et al.
# Submitted via: EasyCDDAExtractor 4.6.0.1
#
DISCID=a50a670d
DTITLE=Kraig Kenning and Steve Arvey - Pass the Hat
DYEAR=1997
DGENRE=Acoustic Blues
TTITLE0=Can't Be Satisfied
TTITLE1=Big Road Blues
TTITLE2=St James Infirmary
TTITLE3=Coming Back To You
TTITLE4=Let the Good Times Roll
TTITLE5=Sliding Delta Blues
TTITLE6=Roll Away the Stone
TTITLE7=If I Had Possession Over Judgement Day
TTITLE8=Someday
TTITLE9=Katey Mae
TTITLE10=Getting Off
TTITLE11=Amazing Grace
TTITLE12=1425 W Byron St
EXTD=
EXTT0=
EXTT1=
EXTT2=
EXTT3=
EXTT4=
EXTT5=
EXTT6=
EXTT7=
EXTT8=
EXTT9=
EXTT10=
EXTT11=
EXTT12=
PLAYORDER=
